<svg xmlns="http://www.w3.org/2000/svg" version="1.1" viewBox="0 0 192 192">
  <path fill="#b0bec5" d="M0 0h192v192H0Z"/>
  <path fill="#546e7a" stroke-width=".457" d="M117.008 28.001a3.765 3.765 0 0 0-3.748 3.748v2.606a2.103 2.103 0 0 0 0 4.023v16.274l-.198-.035a15.909 15.909 0 0 0-.384-.065l-1.248-.22v.036a15.909 15.909 0 0 0-6.444.421 15.909 15.909 0 0 0-21.582-1.442l-.008-.058a.114.114 0 0 1 .01-.009l-.274-1.828c-.002.001-.003.003-.006.003l-1.046-7.18c-1.6-8.457-8.045-14.584-16.365-13.898-8.32.686-13.852 7.817-13.898 16.412l.22 10.88h-3.602c-1.508 0-2.331.822-2.331 1.828v7.451l.045.003v1.323a1.829 1.829 0 0 1 .088-.17l3.568 47.073h-.045l-3.703 32.915c0 4.251 3.476 7.908 7.773 7.908h84.297c4.297 0 7.77-3.657 7.77-7.908l-3.748-32.915h.092l3.702-48.23a1.829 1.829 0 0 0-.045-.168v-7.236a1.829 1.829 0 0 0-1.828-1.83l-.046-.045h-16.183V38.377a2.103 2.103 0 0 0 0-4.023v-2.606c-.045-2.057-1.736-3.748-3.793-3.748z" />
</svg>
