<?xml version="1.0" encoding="UTF-8" standalone="no"?>
<!-- Created with Inkscape (http://www.inkscape.org/) -->

<svg
   xmlns:dc="http://purl.org/dc/elements/1.1/"
   xmlns:cc="http://creativecommons.org/ns#"
   xmlns:rdf="http://www.w3.org/1999/02/22-rdf-syntax-ns#"
   xmlns:svg="http://www.w3.org/2000/svg"
   xmlns="http://www.w3.org/2000/svg"
   xmlns:xlink="http://www.w3.org/1999/xlink"
   xmlns:sodipodi="http://sodipodi.sourceforge.net/DTD/sodipodi-0.dtd"
   xmlns:inkscape="http://www.inkscape.org/namespaces/inkscape"
   width="32"
   height="32"
   viewBox="0 0 32 32"
   version="1.1"
   id="svg8"
   inkscape:version="0.92.4 (5da689c313, 2019-01-14)"
   sodipodi:docname="flame_template.svg"
   inkscape:export-filename="C:\Users\roble\Desktop\flame\flame-2_black.png"
   inkscape:export-xdpi="96"
   inkscape:export-ydpi="96">
  <defs
     id="defs2">
    <linearGradient
       id="linearGradient902"
       inkscape:collect="always">
      <stop
         id="stop898"
         offset="0"
         style="stop-color:#ffd453;stop-opacity:1" />
      <stop
         id="stop900"
         offset="1"
         style="stop-color:#ff8200;stop-opacity:1" />
    </linearGradient>
    <linearGradient
       inkscape:collect="always"
       id="linearGradient867">
      <stop
         style="stop-color:#00cfff;stop-opacity:1"
         offset="0"
         id="stop863" />
      <stop
         style="stop-color:#0e6eff;stop-opacity:1"
         offset="1"
         id="stop865" />
    </linearGradient>
    <linearGradient
       id="linearGradient1460"
       inkscape:collect="always">
      <stop
         id="stop1456"
         offset="0"
         style="stop-color:#00bbff;stop-opacity:1" />
      <stop
         id="stop1458"
         offset="1"
         style="stop-color:#0e6eff;stop-opacity:1" />
    </linearGradient>
    <linearGradient
       inkscape:collect="always"
       id="linearGradient978">
      <stop
         style="stop-color:#ffc700;stop-opacity:1"
         offset="0"
         id="stop974" />
      <stop
         style="stop-color:#ff8200;stop-opacity:1"
         offset="1"
         id="stop976" />
    </linearGradient>
    <linearGradient
       inkscape:collect="always"
       id="linearGradient970">
      <stop
         style="stop-color:#00bbff;stop-opacity:1"
         offset="0"
         id="stop966" />
      <stop
         style="stop-color:#0e6eff;stop-opacity:0.98823529"
         offset="1"
         id="stop968" />
    </linearGradient>
    <radialGradient
       inkscape:collect="always"
       xlink:href="#linearGradient970"
       id="radialGradient972"
       cx="-52.714985"
       cy="839.66058"
       fx="-52.714985"
       fy="839.66058"
       r="57.103714"
       gradientTransform="matrix(1,0,0,1.6207282,0,-512.72044)"
       gradientUnits="userSpaceOnUse" />
    <radialGradient
       inkscape:collect="always"
       xlink:href="#linearGradient978"
       id="radialGradient982"
       cx="-102.51299"
       cy="784.88849"
       fx="-102.51299"
       fy="784.88849"
       r="69.520531"
       gradientTransform="matrix(1.8117691,0,0,2.9689579,90.067709,-1582.643)"
       gradientUnits="userSpaceOnUse" />
    <radialGradient
       inkscape:collect="always"
       xlink:href="#linearGradient978"
       id="radialGradient994"
       gradientUnits="userSpaceOnUse"
       gradientTransform="matrix(1.8117691,0,0,2.9689579,90.067709,-1582.643)"
       cx="-102.51299"
       cy="784.88849"
       fx="-102.51299"
       fy="784.88849"
       r="69.520531" />
    <radialGradient
       inkscape:collect="always"
       xlink:href="#linearGradient970"
       id="radialGradient996"
       gradientUnits="userSpaceOnUse"
       gradientTransform="matrix(1,0,0,1.6207282,0,-512.72044)"
       cx="-52.714985"
       cy="839.66058"
       fx="-52.714985"
       fy="839.66058"
       r="57.103714" />
    <radialGradient
       inkscape:collect="always"
       xlink:href="#linearGradient978"
       id="radialGradient1218"
       gradientUnits="userSpaceOnUse"
       gradientTransform="matrix(1.8117691,0,0,2.9689579,90.067709,-1582.643)"
       cx="-102.51299"
       cy="784.88849"
       fx="-102.51299"
       fy="784.88849"
       r="69.520531" />
    <radialGradient
       inkscape:collect="always"
       xlink:href="#linearGradient970"
       id="radialGradient1220"
       gradientUnits="userSpaceOnUse"
       gradientTransform="matrix(1,0,0,1.6207282,0,-512.72044)"
       cx="-52.714985"
       cy="839.66058"
       fx="-52.714985"
       fy="839.66058"
       r="57.103714" />
    <linearGradient
       inkscape:collect="always"
       xlink:href="#linearGradient1460"
       id="linearGradient1447"
       gradientUnits="userSpaceOnUse"
       x1="-24.810616"
       y1="-307.53036"
       x2="-65.126587"
       y2="-183.97202"
       gradientTransform="matrix(2.0217242,0,0,2.0314185,267.10194,983.19768)" />
    <linearGradient
       inkscape:collect="always"
       xlink:href="#linearGradient978"
       id="linearGradient1449"
       gradientUnits="userSpaceOnUse"
       x1="-5.9586625"
       y1="-331.88358"
       x2="84.894218"
       y2="-226.89935"
       gradientTransform="matrix(2.0217242,0,0,2.0314185,267.10194,983.19768)" />
    <linearGradient
       inkscape:collect="always"
       xlink:href="#linearGradient978"
       id="linearGradient1451"
       gradientUnits="userSpaceOnUse"
       x1="-33.435478"
       y1="-120.99861"
       x2="34.812424"
       y2="-62.045933"
       gradientTransform="matrix(2.0217242,0,0,2.0314185,267.10194,655.05591)" />
    <radialGradient
       inkscape:collect="always"
       xlink:href="#linearGradient867"
       id="radialGradient861"
       cx="-379.15869"
       cy="-598.30182"
       fx="-379.15869"
       fy="-598.30182"
       r="88.376793"
       gradientTransform="matrix(1.5297705,-1.5026505e-7,1.5800591e-7,1.7516356,197.5112,460.85951)"
       gradientUnits="userSpaceOnUse" />
    <radialGradient
       inkscape:collect="always"
       xlink:href="#linearGradient902"
       id="radialGradient896"
       cx="-345.28424"
       cy="-634.96155"
       fx="-345.28424"
       fy="-634.96155"
       r="61.745312"
       gradientTransform="matrix(1.2876745,0.00169683,-0.00302836,2.29815,97.166374,813.09216)"
       gradientUnits="userSpaceOnUse" />
    <radialGradient
       inkscape:collect="always"
       xlink:href="#linearGradient902"
       id="radialGradient904"
       gradientUnits="userSpaceOnUse"
       gradientTransform="matrix(1.2876745,0.00169683,-0.00302836,2.29815,97.166374,813.09216)"
       cx="-345.28424"
       cy="-634.96155"
       fx="-345.28424"
       fy="-634.96155"
       r="61.745312" />
    <radialGradient
       inkscape:collect="always"
       xlink:href="#linearGradient902"
       id="radialGradient906"
       gradientUnits="userSpaceOnUse"
       gradientTransform="matrix(1.2876745,0.00169683,-0.00302836,2.29815,97.166374,813.09216)"
       cx="-345.28424"
       cy="-634.96155"
       fx="-345.28424"
       fy="-634.96155"
       r="61.745312" />
    <filter
       style="color-interpolation-filters:sRGB;"
       inkscape:label="Drop Shadow"
       id="filter1098">
      <feFlood
         flood-opacity="0.498039"
         flood-color="rgb(0,0,0)"
         result="flood"
         id="feFlood1088" />
      <feComposite
         in="flood"
         in2="SourceGraphic"
         operator="in"
         result="composite1"
         id="feComposite1090" />
      <feGaussianBlur
         in="composite1"
         stdDeviation="3"
         result="blur"
         id="feGaussianBlur1092" />
      <feOffset
         dx="6"
         dy="6"
         result="offset"
         id="feOffset1094" />
      <feComposite
         in="SourceGraphic"
         in2="offset"
         operator="over"
         result="composite2"
         id="feComposite1096" />
    </filter>
    <filter
       style="color-interpolation-filters:sRGB;"
       inkscape:label="Drop Shadow"
       id="filter1122">
      <feFlood
         flood-opacity="0.498039"
         flood-color="rgb(0,0,0)"
         result="flood"
         id="feFlood1112" />
      <feComposite
         in="flood"
         in2="SourceGraphic"
         operator="in"
         result="composite1"
         id="feComposite1114" />
      <feGaussianBlur
         in="composite1"
         stdDeviation="3"
         result="blur"
         id="feGaussianBlur1116" />
      <feOffset
         dx="6"
         dy="6"
         result="offset"
         id="feOffset1118" />
      <feComposite
         in="SourceGraphic"
         in2="offset"
         operator="over"
         result="composite2"
         id="feComposite1120" />
    </filter>
    <linearGradient
       inkscape:collect="always"
       xlink:href="#linearGradient1460"
       id="linearGradient1132"
       gradientUnits="userSpaceOnUse"
       gradientTransform="matrix(2.0217242,0,0,2.0314185,267.10194,983.19768)"
       x1="-24.810616"
       y1="-307.53036"
       x2="-65.126587"
       y2="-183.97202" />
    <linearGradient
       inkscape:collect="always"
       xlink:href="#linearGradient978"
       id="linearGradient1134"
       gradientUnits="userSpaceOnUse"
       gradientTransform="matrix(2.0217242,0,0,2.0314185,267.10194,983.19768)"
       x1="-5.9586625"
       y1="-331.88358"
       x2="84.894218"
       y2="-226.89935" />
    <linearGradient
       inkscape:collect="always"
       xlink:href="#linearGradient978"
       id="linearGradient1136"
       gradientUnits="userSpaceOnUse"
       gradientTransform="matrix(2.0217242,0,0,2.0314185,267.10194,655.05591)"
       x1="-33.435478"
       y1="-120.99861"
       x2="34.812424"
       y2="-62.045933" />
    <filter
       style="color-interpolation-filters:sRGB;"
       inkscape:label="Drop Shadow"
       id="filter1148">
      <feFlood
         flood-opacity="0.498039"
         flood-color="rgb(0,0,0)"
         result="flood"
         id="feFlood1138" />
      <feComposite
         in="flood"
         in2="SourceGraphic"
         operator="in"
         result="composite1"
         id="feComposite1140" />
      <feGaussianBlur
         in="composite1"
         stdDeviation="3"
         result="blur"
         id="feGaussianBlur1142" />
      <feOffset
         dx="6"
         dy="6"
         result="offset"
         id="feOffset1144" />
      <feComposite
         in="SourceGraphic"
         in2="offset"
         operator="over"
         result="composite2"
         id="feComposite1146" />
    </filter>
    <radialGradient
       inkscape:collect="always"
       xlink:href="#linearGradient867"
       id="radialGradient1214"
       cx="905.67816"
       cy="486.95172"
       fx="905.67816"
       fy="486.95172"
       r="42.380184"
       gradientTransform="matrix(1,0,0,1.6232373,432.50793,-875.48211)"
       gradientUnits="userSpaceOnUse" />
    <radialGradient
       inkscape:collect="always"
       xlink:href="#linearGradient902"
       id="radialGradient1222"
       cx="851.38812"
       cy="484.28082"
       fx="851.38812"
       fy="484.28082"
       r="75.889694"
       gradientTransform="matrix(1,0,0,1.320859,432.50793,-734.17819)"
       gradientUnits="userSpaceOnUse" />
    <radialGradient
       inkscape:collect="always"
       xlink:href="#linearGradient902"
       id="radialGradient1228"
       gradientUnits="userSpaceOnUse"
       gradientTransform="matrix(1,0,0,1.320859,221.5631,-728.70891)"
       cx="851.38812"
       cy="484.28082"
       fx="851.38812"
       fy="484.28082"
       r="75.889694" />
    <radialGradient
       inkscape:collect="always"
       xlink:href="#linearGradient867"
       id="radialGradient1230"
       gradientUnits="userSpaceOnUse"
       gradientTransform="matrix(1,0,0,1.6232373,221.5631,-870.01283)"
       cx="905.67816"
       cy="486.95172"
       fx="905.67816"
       fy="486.95172"
       r="42.380184" />
    <filter
       style="color-interpolation-filters:sRGB;"
       inkscape:label="Drop Shadow"
       id="filter2076">
      <feFlood
         flood-opacity="0.498039"
         flood-color="rgb(0,0,0)"
         result="flood"
         id="feFlood2066" />
      <feComposite
         in="flood"
         in2="SourceGraphic"
         operator="in"
         result="composite1"
         id="feComposite2068" />
      <feGaussianBlur
         in="composite1"
         stdDeviation="3"
         result="blur"
         id="feGaussianBlur2070" />
      <feOffset
         dx="6"
         dy="6"
         result="offset"
         id="feOffset2072" />
      <feComposite
         in="SourceGraphic"
         in2="offset"
         operator="over"
         result="composite2"
         id="feComposite2074" />
    </filter>
    <filter
       style="color-interpolation-filters:sRGB;"
       inkscape:label="Drop Shadow"
       id="filter2088">
      <feFlood
         flood-opacity="0.498039"
         flood-color="rgb(0,0,0)"
         result="flood"
         id="feFlood2078" />
      <feComposite
         in="flood"
         in2="SourceGraphic"
         operator="in"
         result="composite1"
         id="feComposite2080" />
      <feGaussianBlur
         in="composite1"
         stdDeviation="3"
         result="blur"
         id="feGaussianBlur2082" />
      <feOffset
         dx="6"
         dy="6"
         result="offset"
         id="feOffset2084" />
      <feComposite
         in="SourceGraphic"
         in2="offset"
         operator="over"
         result="composite2"
         id="feComposite2086" />
    </filter>
  </defs>
  <sodipodi:namedview
     id="base"
     pagecolor="#ffffff"
     bordercolor="#666666"
     borderopacity="1.0"
     inkscape:pageopacity="0.0"
     inkscape:pageshadow="2"
     inkscape:zoom="1.2382812"
     inkscape:cx="1840.0735"
     inkscape:cy="714.11095"
     inkscape:document-units="px"
     inkscape:current-layer="g1163"
     showgrid="true"
     units="px"
     inkscape:pagecheckerboard="false"
     inkscape:window-width="1536"
     inkscape:window-height="801"
     inkscape:window-x="-8"
     inkscape:window-y="-8"
     inkscape:window-maximized="1"
     inkscape:snap-grids="false"
     inkscape:snap-to-guides="false">
    <inkscape:grid
       type="xygrid"
       id="grid3713"
       empspacing="16"
       dotted="false" />
  </sodipodi:namedview>
  <metadata
     id="metadata5">
    <rdf:RDF>
      <cc:Work
         rdf:about="">
        <dc:format>image/svg+xml</dc:format>
        <dc:type
           rdf:resource="http://purl.org/dc/dcmitype/StillImage" />
        <dc:title></dc:title>
        <dc:creator>
          <cc:Agent>
            <dc:title>Rob Leroy</dc:title>
          </cc:Agent>
        </dc:creator>
      </cc:Work>
    </rdf:RDF>
  </metadata>
  <g
     inkscape:label="Layer 1"
     inkscape:groupmode="layer"
     id="layer1"
     transform="translate(0,-641.53332)">
    <path
       style="fill:#000000;stroke-width:1.71632981"
       d="m -191.80974,671.64561 c -13.60817,-3.90057 -20.08708,-7.10454 -30.98201,-15.32138 -15.60852,-11.77176 -26.00811,-28.01183 -30.68637,-47.92006 -2.90105,-12.34527 -3.44135,-32.28823 -0.87478,-32.28823 0.94243,0 1.75658,1.74064 1.80924,3.86809 0.14942,6.03791 5.35908,17.20004 11.47047,24.57659 5.44463,6.57176 8.00176,5.03076 3.16013,-1.90439 -1.32484,-1.89768 -4.21639,-9.2258 -6.42567,-16.28469 -7.16157,-22.88192 -4.39146,-68.13767 4.63054,-75.6499 2.07301,-1.72612 2.4904,-1.30016 2.4904,2.54149 0,6.72682 5.19886,21.59314 7.55127,21.59314 4.84722,0 25.92749,-25.7947 32.01366,-39.17325 5.34122,-11.74104 10.1269,-30.68283 10.1269,-40.08244 0,-9.76449 -4.45902,-28.12834 -8.23325,-33.90752 l -2.71662,-4.15974 5.90331,1.25419 c 16.90028,3.59055 41.06592,23.98257 48.98396,41.3348 3.41816,7.49082 4.26566,11.61231 3.66897,17.84263 -1.31933,13.77579 -7.57631,23.14682 -33.56195,50.26556 -30.15703,31.47203 -33.50492,37.53208 -33.57744,60.77908 -0.0624,19.97841 4.24615,31.48745 16.91606,45.18721 13.05275,14.11371 25.10291,19.78454 43.9666,20.69074 9.00498,0.43261 17.27717,-0.11295 21.14827,-1.39473 3.77248,-1.24914 6.98583,-1.47543 7.90178,-0.55646 2.03326,2.03995 -14.89393,12.28926 -27.34507,16.5573 -12.62,4.32591 -36.03976,5.39056 -47.3384,2.15197 z m 32.54349,-31.57197 c -16.42251,-5.6976 -29.54772,-19.52936 -33.50901,-35.31289 -2.84668,-11.34237 -1.30101,-29.59313 3.31914,-39.19128 2.33791,-4.85692 12.86583,-17.27219 26.96517,-31.79929 31.94119,-32.9102 39.28208,-48.20772 33.25368,-69.29666 -0.9263,-3.24049 -1.34525,-6.23187 -0.93099,-6.64749 1.46759,-1.47242 20.93278,19.58493 27.17494,29.39771 33.007803,51.88893 30.079563,120.32713 -6.22054,145.38448 -14.65653,10.11716 -34.06517,13.01199 -50.05239,7.46542 z"
       id="path841"
       inkscape:connector-curvature="0" />
    <g
       id="g986"
       transform="translate(-67.960157,-531.69604)">
      <path
         id="path964"
         d="m -123.84958,947.34165 c -13.60817,-3.90057 -20.08708,-7.10454 -30.98201,-15.32138 -15.60852,-11.77176 -26.00811,-28.01183 -30.68637,-47.92006 -2.90105,-12.34527 -3.44135,-32.28823 -0.87478,-32.28823 0.94243,0 1.75658,1.74064 1.80924,3.86809 0.14942,6.03791 5.35908,17.20004 11.47047,24.57659 5.44463,6.57176 8.00176,5.03076 3.16013,-1.90439 -1.32484,-1.89768 -4.21639,-9.2258 -6.42567,-16.28469 -7.16157,-22.88192 -4.39146,-68.13767 4.63054,-75.6499 2.07301,-1.72612 2.4904,-1.30016 2.4904,2.54149 0,6.72682 5.19886,21.59314 7.55127,21.59314 4.84722,0 25.92749,-25.7947 32.01366,-39.17325 5.34122,-11.74104 10.1269,-30.68283 10.1269,-40.08244 0,-9.76449 -4.45902,-28.12834 -8.23325,-33.90752 l -2.71662,-4.15974 5.90331,1.25419 c 16.90028,3.59055 41.06592,23.98257 48.98396,41.3348 3.41816,7.49082 4.26566,11.61231 3.66897,17.84263 -1.31933,13.77579 -7.57631,23.14682 -33.56195,50.26556 -30.15703,31.47203 -33.50492,37.53208 -33.57744,60.77908 -0.0624,19.97841 4.24615,31.48745 16.91606,45.18721 13.05275,14.11371 25.10291,19.78454 43.9666,20.69074 9.00498,0.43261 17.27717,-0.11295 21.14827,-1.39473 3.77248,-1.24914 6.98583,-1.47543 7.90178,-0.55646 2.03326,2.03995 -14.89393,12.28926 -27.34507,16.5573 -12.62,4.32591 -36.03976,5.39056 -47.3384,2.15197 z"
         style="fill:url(#radialGradient982);fill-opacity:1;stroke-width:1.71632981"
         inkscape:connector-curvature="0" />
      <path
         id="path960"
         d="m -91.30609,915.76968 c -16.42251,-5.6976 -29.54772,-19.52936 -33.50901,-35.31289 -2.84668,-11.34237 -1.30101,-29.59313 3.31914,-39.19128 2.33791,-4.85692 12.86583,-17.27219 26.96517,-31.79929 31.94119,-32.9102 39.28208,-48.20772 33.25368,-69.29666 -0.9263,-3.24049 -1.34525,-6.23187 -0.93099,-6.64749 1.46759,-1.47242 20.93278,19.58493 27.17494,29.39771 33.0077976,51.88893 30.0795576,120.32713 -6.22054,145.38448 -14.65653,10.11716 -34.06517,13.01199 -50.05239,7.46542 z"
         style="fill:url(#radialGradient972);fill-opacity:1;stroke-width:1.71632981"
         inkscape:connector-curvature="0" />
    </g>
    <g
       transform="matrix(1.9375,0,0,1.9375,-326.78573,-1173.5986)"
       id="g992">
      <path
         inkscape:connector-curvature="0"
         style="fill:url(#radialGradient994);fill-opacity:1;stroke-width:1.71632981"
         d="m -123.84958,947.34165 c -13.60817,-3.90057 -20.08708,-7.10454 -30.98201,-15.32138 -15.60852,-11.77176 -26.00811,-28.01183 -30.68637,-47.92006 -2.90105,-12.34527 -3.44135,-32.28823 -0.87478,-32.28823 0.94243,0 1.75658,1.74064 1.80924,3.86809 0.14942,6.03791 5.35908,17.20004 11.47047,24.57659 5.44463,6.57176 8.00176,5.03076 3.16013,-1.90439 -1.32484,-1.89768 -4.21639,-9.2258 -6.42567,-16.28469 -7.16157,-22.88192 -4.39146,-68.13767 4.63054,-75.6499 2.07301,-1.72612 2.4904,-1.30016 2.4904,2.54149 0,6.72682 5.19886,21.59314 7.55127,21.59314 4.84722,0 25.92749,-25.7947 32.01366,-39.17325 5.34122,-11.74104 10.1269,-30.68283 10.1269,-40.08244 0,-9.76449 -4.45902,-28.12834 -8.23325,-33.90752 l -2.71662,-4.15974 5.90331,1.25419 c 16.90028,3.59055 41.06592,23.98257 48.98396,41.3348 3.41816,7.49082 4.26566,11.61231 3.66897,17.84263 -1.31933,13.77579 -7.57631,23.14682 -33.56195,50.26556 -30.15703,31.47203 -33.50492,37.53208 -33.57744,60.77908 -0.0624,19.97841 4.24615,31.48745 16.91606,45.18721 13.05275,14.11371 25.10291,19.78454 43.9666,20.69074 9.00498,0.43261 17.27717,-0.11295 21.14827,-1.39473 3.77248,-1.24914 6.98583,-1.47543 7.90178,-0.55646 2.03326,2.03995 -14.89393,12.28926 -27.34507,16.5573 -12.62,4.32591 -36.03976,5.39056 -47.3384,2.15197 z"
         id="path988" />
      <path
         inkscape:connector-curvature="0"
         style="fill:url(#radialGradient996);fill-opacity:1;stroke-width:1.71632981"
         d="m -91.30609,915.76968 c -16.42251,-5.6976 -29.54772,-19.52936 -33.50901,-35.31289 -2.84668,-11.34237 -1.30101,-29.59313 3.31914,-39.19128 2.33791,-4.85692 12.86583,-17.27219 26.96517,-31.79929 31.94119,-32.9102 39.28208,-48.20772 33.25368,-69.29666 -0.9263,-3.24049 -1.34525,-6.23187 -0.93099,-6.64749 1.46759,-1.47242 20.93278,19.58493 27.17494,29.39771 33.0077976,51.88893 30.0795576,120.32713 -6.22054,145.38448 -14.65653,10.11716 -34.06517,13.01199 -50.05239,7.46542 z"
         id="path990" />
    </g>
    <g
       id="g1002"
       transform="matrix(1.9375,0,0,1.9375,-326.78572,-1173.5986)"
       style="stroke:none;stroke-opacity:1">
      <path
         id="path998"
         d="m -123.84958,947.34165 c -13.60817,-3.90057 -20.08708,-7.10454 -30.98201,-15.32138 -15.60852,-11.77176 -26.00811,-28.01183 -30.68637,-47.92006 -2.90105,-12.34527 -3.44135,-32.28823 -0.87478,-32.28823 0.94243,0 1.75658,1.74064 1.80924,3.86809 0.14942,6.03791 5.35908,17.20004 11.47047,24.57659 5.44463,6.57176 8.00176,5.03076 3.16013,-1.90439 -1.32484,-1.89768 -4.21639,-9.2258 -6.42567,-16.28469 -7.16157,-22.88192 -4.39146,-68.13767 4.63054,-75.6499 2.07301,-1.72612 2.4904,-1.30016 2.4904,2.54149 0,6.72682 5.19886,21.59314 7.55127,21.59314 4.84722,0 25.92749,-25.7947 32.01366,-39.17325 5.34122,-11.74104 10.1269,-30.68283 10.1269,-40.08244 0,-9.76449 -4.45902,-28.12834 -8.23325,-33.90752 l -2.71662,-4.15974 5.90331,1.25419 c 16.90028,3.59055 41.06592,23.98257 48.98396,41.3348 3.41816,7.49082 4.26566,11.61231 3.66897,17.84263 -1.31933,13.77579 -7.57631,23.14682 -33.56195,50.26556 -30.15703,31.47203 -33.50492,37.53208 -33.57744,60.77908 -0.0624,19.97841 4.24615,31.48745 16.91606,45.18721 13.05275,14.11371 25.10291,19.78454 43.9666,20.69074 9.00498,0.43261 17.27717,-0.11295 21.14827,-1.39473 3.77248,-1.24914 6.98583,-1.47543 7.90178,-0.55646 2.03326,2.03995 -14.89393,12.28926 -27.34507,16.5573 -12.62,4.32591 -36.03976,5.39056 -47.3384,2.15197 z"
         style="fill:url(#radialGradient1218);fill-opacity:1;stroke:none;stroke-width:1.71632981;stroke-opacity:1"
         inkscape:connector-curvature="0" />
      <path
         id="path1000"
         d="m -91.30609,915.76968 c -16.42251,-5.6976 -29.54772,-19.52936 -33.50901,-35.31289 -2.84668,-11.34237 -1.30101,-29.59313 3.31914,-39.19128 2.33791,-4.85692 12.86583,-17.27219 26.96517,-31.79929 31.94119,-32.9102 39.28208,-48.20772 33.25368,-69.29666 -0.9263,-3.24049 -1.34525,-6.23187 -0.93099,-6.64749 1.46759,-1.47242 20.93278,19.58493 27.17494,29.39771 33.0077976,51.88893 30.0795576,120.32713 -6.22054,145.38448 -14.65653,10.11716 -34.06517,13.01199 -50.05239,7.46542 z"
         style="fill:url(#radialGradient1220);fill-opacity:1;stroke:none;stroke-width:1.71632981;stroke-opacity:1"
         inkscape:connector-curvature="0" />
    </g>
    <g
       id="g1222"
       transform="translate(-174.43533,37.955836)" />
    <path
       sodipodi:nodetypes="cssssssccccssscccc"
       inkscape:connector-curvature="0"
       id="path1305"
       d="m -827.55177,-757.82539 c -1.66873,-0.22909 -5.01817,3.9556 -11.1875,12.73047 -4.51476,6.4215 -12.08807,16.62578 -16.82812,22.67578 -34.33488,43.82357 -42.11699,54.73668 -49.91797,70 -9.02649,17.66114 -9.78513,20.44877 -10.30469,38.12109 -0.67344,22.90632 3.20008,36.62319 16.12109,54.72266 12.7549,17.86676 34.2401,31.41539 55.63867,35.14453 2.7113,0.4725 5.8552,0.81345 9.02149,1.04688 1.90619,0.24933 4.56298,0.34639 7.52148,0.32031 2.9603,0.0262 5.62058,-0.0708 7.52735,-0.32031 3.16497,-0.23343 6.30934,-0.57457 9.01953,-1.04688 21.39857,-3.72914 42.88378,-17.27777 55.63867,-35.14453 12.92101,-18.09947 16.79258,-31.81634 16.11914,-54.72266 -0.51956,-17.67232 -1.2782,-20.45995 -10.30469,-38.12109 -7.80098,-15.26332 -15.58309,-26.17643 -49.91797,-70 -4.74004,-6.05 -12.31141,-16.25428 -16.82617,-22.67578 -6.25583,-8.89791 -9.61131,-13.06871 -11.25586,-12.71094 -0.0221,-0.005 -0.0417,-0.0164 -0.0644,-0.0195 z"
       style="fill:#070707;fill-opacity:1;stroke:none" />
    <path
       inkscape:connector-curvature="0"
       id="rect1278"
       d="m -847.71103,-689.38351 c -11.22829,0.91941 -15.57421,13.15566 -20.47461,21.45117 -12.45267,21.61732 -9.50766,50.71427 6.75391,69.59961 12.82781,17.69036 30.89763,33.32517 34.87109,55.83593 5.31749,10.72943 22.90337,8.86474 27.37891,-1.67578 17.69001,-23.35739 19.37507,-58.58752 0.87841,-82.01519 -12.97494,-18.78406 -31.58517,-34.70057 -37.64989,-57.2934 -2.68045,-3.67446 -7.15666,-6.12426 -11.75782,-5.90234 z"
       style="opacity:1;fill:#e6e6e6;fill-opacity:1;stroke:none;stroke-width:1.23336029;stroke-opacity:1" />
    <path
       style="opacity:1;fill:#666666;fill-opacity:1;stroke:none;stroke-width:1.23336029;stroke-opacity:1"
       d="m -848.05974,-671.2196 c -11.23519,18.238 -13.88486,28.84649 -11.01367,41.75195 2.1908,9.84719 10.09335,21.98079 24.21289,38.39649 10.89806,12.67035 19.2705,24.90689 21.80272,37.58984 8.04078,-10.94871 13.71223,-24.38788 11.78711,-38.11719 -1.15837,-17.69272 -14.02206,-31.16292 -24.48046,-44.31054 -9.56407,-12.10999 -17.8085,-20.70114 -22.30859,-35.31055 z"
       id="path1324"
       inkscape:connector-curvature="0" />
    <g
       id="g1437"
       transform="matrix(0.12286805,0,0,0.12286805,16.674708,671.89961)"
       style="fill:#000000;fill-opacity:1">
      <path
         transform="translate(0,161.53332)"
         id="path1390"
         d="m -5.5761719,-398.85742 c -4.2304987,7.32744 -27.3685081,37.29602 -43.1699221,54.30469 -20.029651,25.25133 -42.235066,51.43275 -47.964844,83.97656 -4.863462,35.46822 13.295806,73.42225 45.816407,90.125 16.692882,9.3998 51.41261182,19.15032 55.4082029,11.06836 32.4456911,-65.62853 -118.9236619,-85.58122 -17.1053439,-209.13272 11.66828066,-12.83182 12.73170698,-38.87313 7.0155001,-30.34189 z"
         style="fill:#000000;fill-opacity:1;stroke:none;stroke-width:1.0284847"
         inkscape:connector-curvature="0" />
      <path
         id="path1312"
         transform="translate(0,161.53332)"
         d="m 5.1308594,-377.64258 c -62.1718734,79.41618 116.1862506,115.91483 14.5273436,215.37696 -0.0091,0.0395 -0.02381,0.0759 -0.0332,0.11523 14.927224,-3.98599 28.813639,-11.57538 39.734375,-22.70117 26.280608,-24.86791 34.918082,-66.1623 19.542969,-98.94727 -12.133034,-26.45991 -40.410485,-59.87166 -51.34961,-71.43555 -10.939125,-11.56389 -17.802829,-28.30841 -22.4218776,-22.4082 z"
         style="fill:#000000;fill-opacity:1;stroke:none;stroke-width:1.0284847"
         inkscape:connector-curvature="0" />
      <path
         inkscape:connector-curvature="0"
         id="path1368"
         d="m -21.91092,-164.64258 c -10.50844,19.13322 -14.60948,44.10055 -2.5039,63.57031 14.11487,25.299976 40.36618,43.363556 47.63671,72.482426 11.12908,-14.269697 17.06598,-34.773116 7.88893,-51.310132 -13.59668,-30.527384 -44.08325,-51.785764 -52.85377,-85.053144 z"
         style="fill:#000000;fill-opacity:1;stroke:none;stroke-width:16;stroke-linecap:round;stroke-linejoin:round;stroke-miterlimit:4;stroke-dasharray:none;stroke-opacity:1" />
    </g>
    <g
       id="g1465"
       transform="translate(-64.605678,-736.50473)">
      <path
         inkscape:connector-curvature="0"
         style="fill:url(#linearGradient1447);fill-opacity:1;stroke:none;stroke-width:2.0842917"
         d="m 255.82846,172.95134 c -8.5529,14.8851 -55.33158,75.76382 -87.27768,110.31555 -40.49443,51.29602 -85.387653,104.48144 -96.971684,170.59154 -9.832579,72.0508 26.880453,149.15131 92.628144,183.08159 33.7484,19.09493 103.94212,38.90231 112.0201,22.48447 65.59624,-133.31901 -240.430846,-173.85127 -34.58229,-424.83608 23.59005,-26.06679 25.74,-78.96759 14.18341,-61.63707 z"
         id="path1439" />
      <path
         inkscape:connector-curvature="0"
         style="fill:url(#linearGradient1449);fill-opacity:1;stroke:none;stroke-width:2.0842917"
         d="m 277.47512,216.04756 c -125.69438,161.32749 234.89656,235.47153 29.37028,437.52074 -0.0184,0.0802 -0.0481,0.15418 -0.0671,0.23408 30.17873,-8.09722 58.25323,-23.51444 80.33195,-46.11558 53.13214,-50.51713 70.59473,-134.40332 39.51049,-201.00331 C 402.0911,352.93234 344.92189,285.05909 322.806,261.56799 300.6901,238.07689 286.81358,204.06176 277.47514,216.04756 Z"
         id="path1441" />
      <path
         style="fill:url(#linearGradient1451);fill-opacity:1;stroke:none;stroke-width:32.42504883;stroke-linecap:round;stroke-linejoin:round;stroke-miterlimit:4;stroke-dasharray:none;stroke-opacity:1"
         d="m 222.8041,320.59793 c -21.24516,38.86757 -29.53634,89.58667 -5.06219,129.1379 28.53637,51.39484 81.60928,88.08953 96.30829,147.24214 22.49993,-28.98772 34.5027,-70.63875 15.94924,-104.23235 C 302.5107,430.73173 240.87526,387.54706 223.14369,319.96709 Z"
         id="path1443"
         inkscape:connector-curvature="0" />
    </g>
    <path
       style="fill:url(#radialGradient861);fill-opacity:1;stroke:none;filter:url(#filter1122)"
       d="m -359.1606,-744.90425 c -1.66873,-0.22909 -5.01817,3.9556 -11.1875,12.73047 -4.51476,6.4215 -12.08807,16.62578 -16.82812,22.67578 -34.33488,43.82357 -42.11699,54.73668 -49.91797,70 -9.02649,17.66114 -9.78513,20.44877 -10.30469,38.12109 -0.67344,22.90632 3.20008,36.62319 16.12109,54.72266 12.7549,17.86676 34.2401,31.41539 55.63867,35.14453 2.7113,0.4725 5.8552,0.81345 9.02149,1.04688 1.90619,0.24933 4.56298,0.34639 7.52148,0.32031 2.9603,0.0262 5.62058,-0.0708 7.52735,-0.32031 3.16497,-0.23343 6.30934,-0.57457 9.01953,-1.04688 21.39857,-3.72914 42.88378,-17.27777 55.63867,-35.14453 12.92101,-18.09947 16.79258,-31.81634 16.11914,-54.72266 -0.51956,-17.67232 -1.2782,-20.45995 -10.30469,-38.12109 -7.80098,-15.26332 -15.58309,-26.17643 -49.91797,-70 -4.74004,-6.05 -12.31141,-16.25428 -16.82617,-22.67578 -6.25583,-8.89791 -9.61131,-13.06871 -11.25586,-12.71094 -0.0221,-0.005 -0.0417,-0.0164 -0.0644,-0.0195 z"
       id="path853"
       inkscape:connector-curvature="0"
       sodipodi:nodetypes="cssssssccccssscccc" />
    <g
       id="g888"
       style="fill:url(#radialGradient896);fill-opacity:1;filter:url(#filter1098)"
       transform="translate(-2)">
      <path
         id="path871"
         d="m -350.13284,-738.07687 c -64.88346,83.27727 121.25365,121.55044 15.16095,225.84828 -0.01,0.0414 -0.0248,0.0796 -0.0346,0.12083 15.57827,-4.17979 30.07033,-12.13816 41.46737,-23.80487 27.42682,-26.07695 36.44101,-69.37902 20.39532,-103.75794 -12.66221,-27.74636 -42.17296,-62.78254 -53.58919,-74.90865 -11.41623,-12.12611 -18.57929,-29.68472 -23.3998,-23.49765 z"
         style="fill:url(#radialGradient904);fill-opacity:1;stroke:none;stroke-width:1.07591176"
         inkscape:connector-curvature="0" />
      <path
         inkscape:connector-curvature="0"
         id="path873"
         d="m -378.35403,-684.10795 c -10.96675,20.06344 -15.24666,46.24465 -2.6131,66.661 14.73048,26.53003 42.12673,45.47183 49.71436,76.00642 11.61446,-14.96347 17.8103,-36.46374 8.233,-53.80476 -14.1897,-32.01158 -46.00592,-54.30351 -55.15896,-89.1883 z"
         style="fill:url(#radialGradient906);fill-opacity:1;stroke:none;stroke-width:16.73781586;stroke-linecap:round;stroke-linejoin:round;stroke-miterlimit:4;stroke-dasharray:none;stroke-opacity:1" />
    </g>
    <g
       transform="translate(-284.26499,-1272.7319)"
       id="g1130"
       style="filter:url(#filter1148)">
      <path
         id="path1124"
         d="m 255.82846,172.95134 c -8.5529,14.8851 -55.33158,75.76382 -87.27768,110.31555 -40.49443,51.29602 -85.387653,104.48144 -96.971684,170.59154 -9.832579,72.0508 26.880453,149.15131 92.628144,183.08159 33.7484,19.09493 103.94212,38.90231 112.0201,22.48447 65.59624,-133.31901 -240.430846,-173.85127 -34.58229,-424.83608 23.59005,-26.06679 25.74,-78.96759 14.18341,-61.63707 z"
         style="fill:url(#linearGradient1132);fill-opacity:1;stroke:none;stroke-width:2.0842917"
         inkscape:connector-curvature="0" />
      <path
         id="path1126"
         d="m 277.47512,216.04756 c -125.69438,161.32749 234.89656,235.47153 29.37028,437.52074 -0.0184,0.0802 -0.0481,0.15418 -0.0671,0.23408 30.17873,-8.09722 58.25323,-23.51444 80.33195,-46.11558 53.13214,-50.51713 70.59473,-134.40332 39.51049,-201.00331 C 402.0911,352.93234 344.92189,285.05909 322.806,261.56799 300.6901,238.07689 286.81358,204.06176 277.47514,216.04756 Z"
         style="fill:url(#linearGradient1134);fill-opacity:1;stroke:none;stroke-width:2.0842917"
         inkscape:connector-curvature="0" />
      <path
         inkscape:connector-curvature="0"
         id="path1128"
         d="m 222.8041,320.59793 c -21.24516,38.86757 -29.53634,89.58667 -5.06219,129.1379 28.53637,51.39484 81.60928,88.08953 96.30829,147.24214 22.49993,-28.98772 34.5027,-70.63875 15.94924,-104.23235 C 302.5107,430.73173 240.87526,387.54706 223.14369,319.96709 Z"
         style="fill:url(#linearGradient1136);fill-opacity:1;stroke:none;stroke-width:32.42504883;stroke-linecap:round;stroke-linejoin:round;stroke-miterlimit:4;stroke-dasharray:none;stroke-opacity:1" />
    </g>
    <g
       id="g1163"
       transform="translate(733.21397,-38.830646)">
      <path
         style="fill:url(#radialGradient1222);fill-opacity:1;stroke:none;stroke-width:2;stroke-miterlimit:4;stroke-dasharray:none;stroke-opacity:0.25098039;paint-order:normal;filter:url(#filter2076)"
         d="m 1268.5077,4.5036074 c -28.6469,-6.39547 -51.6239,-28.4743804 -58.624,-56.3326104 -2.9677,-11.81066 -2.3554,-28.52933 1.4015,-38.26601 3.493,-9.05274 8.8321,-17.148937 15.8146,-23.981347 5.7746,-5.65041 14.4952,-11.55948 15.5309,-10.52374 0.2978,0.29776 -1.3361,2.91658 -3.6308,5.81958 -8.5382,10.80163 -13.2515,23.511887 -13.293,35.846627 -0.027,7.9344 0.9345,14.03538 2.2112,14.03538 0.4181,0 1.2781,-4.21365 1.911,-9.36366 2.4068,-19.58478 7.5236,-30.496687 21.2125,-45.236917 10.4444,-11.24659 14.3795,-18.51139 16.1317,-29.78198 1.4265,-9.1757 0.1823,-19.07271 -3.7688,-29.9781 -3.7547,-10.3635 -4.0689,-12.10788 -2.0408,-11.32963 3.007,1.15392 18.5165,11.83362 23.3,16.04421 9.4437,8.31267 15.3353,21.38572 15.3353,34.02811 0,11.54904 -5.5801,28.29243 -14.3125,42.94584 -3.0063,5.044667 -6.4159,12.370647 -7.5768,16.279937 -2.323,7.82253 -2.7747,19.76428 -1.0362,27.39219 1.5195,6.66714 6.1367,17.46481 11.1968,21.57485 9.0563,7.35602 22.401,11.10646 35.5858,9.4937 11.434,-1.39861 18.9694,-5.05356 28.0186,-13.59012 3.9441,-3.72069 7.4596,-6.4764 7.8122,-6.1238 1.1072,1.10714 -7.3483,16.87425 -12.3934,23.11049 -10.2044,12.61351 -25.7608,22.92535045 -40.7945,27.0413704 -8.7002,2.38199 -29.1718,2.8646 -37.9913,0.89563 z"
         id="path1206"
         inkscape:connector-curvature="0" />
      <path
         style="fill:url(#radialGradient1214);fill-opacity:1;stroke:none;stroke-width:2;stroke-miterlimit:4;stroke-dasharray:none;stroke-opacity:0.25098039;paint-order:normal;filter:url(#filter2088)"
         d="m 1306.1855,-35.999553 c -7.5939,-2.98137 -17.1558,-12.21072 -20.5985,-19.88217 -6.1886,-13.79009 -1.725,-26.33677 5.9252,-40.44466 9.6939,-17.876787 16.8663,-25.918177 16.918,-41.072127 0.036,-10.658 -1.8928,-18.55717 -6.9874,-28.6108 -1.3332,-2.63091 -2.0312,-5.02619 -1.5512,-5.32284 2.7378,-1.69208 21.0757,7.28711 32.6081,15.96666 12.9427,9.74099 20.5924,19.49838 26.9722,34.40383 8.4039,19.63429 9.9071,35.085727 5.6703,48.389017 -6.7717,21.26223 -18.5766,30.80689 -28.6432,35.72925 -7.0907,3.46718 -22.5363,3.89714 -30.3135,0.84384 z"
         id="path1200"
         inkscape:connector-curvature="0" />
      <path
         style="fill:#000000"
         d="m 835.99975,16.825354 c -28.64687,-6.39547 -51.62384,-28.47438 -58.62397,-56.33261 -2.96774,-11.81066 -2.35542,-28.52933 1.40149,-38.26601 3.49302,-9.05274 8.8321,-17.14894 15.81464,-23.981354 5.77456,-5.65041 14.49512,-11.55948 15.53086,-10.52374 0.29777,0.29776 -1.33608,2.91658 -3.63077,5.81958 -8.5382,10.801634 -13.25154,23.511894 -13.293,35.846634 -0.0267,7.9344 0.9345,14.03538 2.21118,14.03538 0.41814,0 1.27807,-4.21365 1.91097,-9.36366 2.40683,-19.58478 7.52365,-30.49669 21.21253,-45.236924 10.44443,-11.24659 14.37947,-18.51139 16.13167,-29.78197 1.42651,-9.1757 0.1823,-19.07271 -3.76874,-29.9781 -3.7547,-10.3635 -4.06892,-12.10788 -2.04085,-11.32963 3.00706,1.15392 18.51654,11.83362 23.30002,16.04421 9.44369,8.31267 15.33525,21.38572 15.33525,34.0281 0,11.54904 -5.58004,28.29243 -14.3125,42.945844 -3.00629,5.04467 -6.41582,12.37065 -7.57674,16.27994 -2.323,7.82253 -2.77476,19.76428 -1.03625,27.39219 1.51953,6.66714 6.13678,17.46481 11.19681,21.57485 9.0563,7.35602 22.40104,11.10646 35.58582,9.4937 11.43401,-1.39861 18.96937,-5.05356 28.01858,-13.59012 3.94413,-3.72069 7.45964,-6.4764 7.81225,-6.1238 1.10713,1.10714 -7.34828,16.87425 -12.39344,23.11049 -10.2044,12.6135096 -25.76081,22.92535 -40.79453,27.04137 -8.70017,2.38199 -29.17179,2.8646 -37.99128,0.89563 z m 37.67787,-40.50316 c -7.59391,-2.98137 -17.15583,-12.21072 -20.59857,-19.88217 -6.18862,-13.79009 -1.72494,-26.33677 5.92524,-40.44466 9.69392,-17.876794 16.86624,-25.918184 16.91794,-41.072134 0.0364,-10.658 -1.89278,-18.55716 -6.98734,-28.61079 -1.33318,-2.63091 -2.03124,-5.02619 -1.55124,-5.32284 2.73784,-1.69208 21.07572,7.28711 32.60815,15.96666 12.94272,9.74098 20.5924,19.49837 26.9722,34.40382 8.40383,19.634294 9.90711,35.085734 5.67025,48.389024 -6.77164,21.26223 -18.57653,30.80689 -28.64322,35.72925 -7.0907,3.46718 -22.53627,3.89714 -30.31341,0.84384 z"
         id="path1202"
         inkscape:connector-curvature="0"
         sodipodi:nodetypes="sssscscssssccssscsssscsssssscscsssss" />
      <path
         id="path1224"
         d="m 1057.5629,9.9728866 c -28.6469,-6.39547 -51.6239,-28.4743796 -58.62402,-56.3326096 -2.96774,-11.81066 -2.35542,-28.52933 1.40152,-38.26601 3.493,-9.05274 8.8321,-17.148937 15.8146,-23.981347 5.7746,-5.65041 14.4951,-11.55948 15.5309,-10.52374 0.2977,0.29776 -1.3361,2.91658 -3.6308,5.81958 -8.5382,10.80163 -13.2515,23.511887 -13.293,35.846627 -0.027,7.9344 0.9345,14.03538 2.2112,14.03538 0.4181,0 1.2781,-4.21365 1.911,-9.36366 2.4068,-19.58478 7.5236,-30.496687 21.2125,-45.236917 10.4444,-11.24659 14.3795,-18.51139 16.1317,-29.78197 1.4265,-9.1757 0.1823,-19.07271 -3.7688,-29.9781 -3.7547,-10.3635 -4.0689,-12.10788 -2.0408,-11.32963 3.007,1.15392 18.5165,11.83362 23.3,16.04421 9.4437,8.31267 15.3352,21.38572 15.3352,34.0281 0,11.54904 -5.58,28.29243 -14.3125,42.945837 -3.0063,5.04467 -6.4158,12.37065 -7.5767,16.27994 -2.323,7.82253 -2.7748,19.76428 -1.0363,27.39219 1.5196,6.66714 6.1368,17.46481 11.1969,21.57485 9.0563,7.35602 22.401,11.10646 35.5858,9.4937 11.434,-1.39861 18.9693,-5.05356 28.0186,-13.59012 3.9441,-3.72069 7.4596,-6.4764 7.8122,-6.1238 1.1071,1.10714 -7.3483,16.87425 -12.3934,23.11049 -10.2044,12.6135096 -25.7608,22.9253496 -40.7946,27.0413696 -8.7001,2.3819904 -29.1718,2.8646004 -37.9912,0.89563 z"
         style="fill:url(#radialGradient1228);fill-opacity:1"
         inkscape:connector-curvature="0" />
      <path
         id="path1226"
         d="m 1095.2407,-30.530273 c -7.5939,-2.98137 -17.1558,-12.21072 -20.5985,-19.88217 -6.1887,-13.79009 -1.725,-26.33677 5.9252,-40.44466 9.6939,-17.876787 16.8662,-25.918177 16.9179,-41.072127 0.036,-10.658 -1.8927,-18.55716 -6.9873,-28.61079 -1.3332,-2.63091 -2.0312,-5.02619 -1.5512,-5.32284 2.7378,-1.69208 21.0757,7.28711 32.6081,15.96666 12.9427,9.74098 20.5924,19.49837 26.9722,34.40382 8.4038,19.634287 9.9071,35.085727 5.6703,48.389017 -6.7717,21.26223 -18.5766,30.80689 -28.6433,35.72925 -7.0907,3.46718 -22.5362,3.89714 -30.3134,0.84384 z"
         style="fill:url(#radialGradient1230);fill-opacity:1"
         inkscape:connector-curvature="0" />
    </g>
  </g>
</svg>
