<svg xmlns="http://www.w3.org/2000/svg" height="24" width="24"><path d="M.606 4.193V18h2.92v-5.955H9V18h2.92V4.193h-2.92v5.414H3.526V4.193zM18.636 4c-.825 0-1.534.098-2.127.291a5.72 5.72 0 0 0-1.547.734c-.451.297-.87.612-1.256.948l1.586 1.875c.554-.452 1.081-.798 1.584-1.043a3.497 3.497 0 0 1 1.547-.37c.516 0 .922.136 1.219.407.309.27.464.684.464 1.238 0 .451-.097.876-.29 1.275-.194.387-.503.827-.928 1.317a65.834 65.834 0 0 1-1.682 1.797l-3.463 3.5V18h9.65v-2.455H17.38v-.137l1.78-1.662a34.804 34.804 0 0 0 2.068-2.05c.58-.62 1.017-1.244 1.314-1.876.31-.631.465-1.327.465-2.088 0-.709-.18-1.34-.541-1.894-.348-.567-.852-1.014-1.51-1.336-.645-.335-1.418-.502-2.32-.502z"/><path fill="none" d="M0 0h24v24H0z"/></svg>