<svg xmlns="http://www.w3.org/2000/svg" height="24" width="24"><path d="M.833 4.19v13.619h2.88v-5.875h5.4v5.875h2.878V4.189H9.112v5.342H3.714V4.19zM18.208 4c-.992 0-1.85.127-2.574.38a7.585 7.585 0 0 0-1.87.954L15.1 7.318c.318-.203.72-.42 1.203-.648.483-.229 1.049-.344 1.697-.344.7 0 1.194.14 1.486.42.306.267.46.642.46 1.125 0 .356-.083.673-.249.953-.152.267-.451.483-.896.649-.433.152-1.07.23-1.908.23h-1.05v2.211h1.032c.852 0 1.512.071 1.982.211.484.127.821.325 1.012.592.19.267.285.584.285.953 0 .648-.209 1.15-.629 1.506-.406.356-1.126.535-2.156.535-.56 0-1.157-.076-1.793-.229a8.528 8.528 0 0 1-1.83-.668v2.442c1.145.496 2.455.744 3.93.744 1.271 0 2.306-.18 3.107-.535.814-.369 1.412-.863 1.793-1.486a3.974 3.974 0 0 0 .592-2.137c0-.89-.285-1.603-.857-2.137-.573-.534-1.4-.872-2.48-1.012v-.056c.826-.204 1.52-.585 2.08-1.145.571-.56.857-1.309.857-2.25 0-1.03-.414-1.825-1.24-2.385-.814-.572-1.92-.857-3.319-.857z"/><path fill="none" d="M0 0h24v24H0z"/></svg>