<svg xmlns="http://www.w3.org/2000/svg" viewBox="0 0 24 24" width="24" height="24">
  <path d="M17.772 9.743l-5.484-3.656a.521.521 0 00-.576 0L6.228 9.743a.524.524 0 00-.228.429v3.656c0 .167.087.335.228.428l5.484 3.657a.521.521 0 00.576 0l5.484-3.657a.524.524 0 00.228-.428v-3.656a.524.524 0 00-.228-.429zM12.516 7.48l4.038 2.692-1.802 1.205-2.236-1.493zm-1.032 0v2.404l-2.236 1.493-1.802-1.205zm-4.453 3.656L8.324 12l-1.293.864zm4.453 5.384l-4.038-2.692 1.802-1.206 2.236 1.494zM12 13.218L10.179 12 12 10.78 13.821 12zm.516 3.302v-2.404l2.236-1.494 1.802 1.206zm4.453-3.656L15.676 12l1.293-.864z"/>
</svg>