<svg xmlns="http://www.w3.org/2000/svg" viewBox="0 0 24 24" width="24" height="24">
  <path d="M10.014 15.42c0 .05-.056.088-.126.088-.08.007-.136-.032-.136-.087 0-.049.056-.087.126-.087.073-.008.136.031.136.087zm-.753-.108c-.017.048.032.104.104.118.063.025.136 0 .15-.048.015-.048-.031-.104-.104-.126-.063-.017-.133.008-.15.056zm1.07-.041c-.07.017-.119.063-.112.118.008.049.07.08.143.063.07-.017.119-.063.111-.111-.007-.046-.072-.077-.142-.07zM11.923 6C8.567 6 6 8.547 6 11.903c0 2.683 1.689 4.98 4.1 5.787.31.056.42-.135.42-.293 0-.15-.008-.977-.008-1.485 0 0-1.693.363-2.05-.721 0 0-.275-.704-.672-.886 0 0-.554-.38.039-.372 0 0 .602.048.934.624.53.934 1.418.665 1.764.506.055-.387.212-.656.387-.816-1.353-.15-2.717-.346-2.717-2.673 0-.665.184-1 .57-1.425-.062-.157-.268-.806.064-1.643.505-.157 1.669.653 1.669.653a5.684 5.684 0 013.039 0s1.163-.812 1.67-.653c.33.84.125 1.486.062 1.643.387.428.624.762.624 1.425 0 2.335-1.425 2.521-2.777 2.673.222.192.411.554.411 1.123 0 .815-.007 1.824-.007 2.023 0 .157.111.348.418.292 2.42-.803 4.06-3.099 4.06-5.782C18 8.547 15.278 6 11.923 6zm-3.571 8.344c-.032.024-.025.08.017.126.038.039.094.056.125.024.032-.024.025-.08-.017-.126-.038-.038-.094-.055-.125-.024zm-.262-.196c-.017.032.008.07.056.095.039.024.087.017.104-.017.017-.032-.007-.07-.056-.095-.048-.014-.087-.007-.104.017zm.784.861c-.039.032-.024.105.032.15.055.056.125.063.157.025.031-.032.017-.104-.032-.15-.053-.056-.125-.063-.157-.025zm-.276-.355c-.038.024-.038.087 0 .143.04.055.104.08.136.055.039-.031.039-.094 0-.15-.034-.055-.097-.08-.136-.048z"/>
</svg>