<svg xmlns="http://www.w3.org/2000/svg" viewBox="17 34 24 24" width="24" height="24">
  <defs>
    <linearGradient id="a" x1="28.286" y1="53.757" x2="70.714" y2="127.243" gradientUnits="userSpaceOnUse" gradientTransform="translate(0 -89)">
      <stop offset="0" stop-color="#1784d9"/>
      <stop offset=".5" stop-color="#107ad5"/>
      <stop offset="1" stop-color="#0a63c9"/>
    </linearGradient>
  </defs>
  <g transform="matrix(.0945 0 0 .0945 21.394 45.862)">
    <path d="M143.984 4.02a1.813 1.813 0 01-.07.52 1.055 1.055 0 01-.06.24c.01.01 0 .02-.01.03a.9.9 0 01-.079.21 2.1 2.1 0 01-.15.3 2.5 2.5 0 01-1.059 1.05l-4.636 2.62-.4.23-4.936 2.78-1.139.64-21.5 12.16-.419.24-8.193 4.63-1.019.57-1.009.57-.51.29c-.17.09-.349.19-.529.29-.02.01-.03.02-.05.03a4.689 4.689 0 01-1.169.43h-.01a5.834 5.834 0 01-1.509.19 5.973 5.973 0 01-2.7-.62c-.14-.08-.28-.16-.42-.23-.05-.03-.1-.06-.16-.09l-6.414-3.63-.869-.49-.62-.35-.13-.07-.469-.27-.07-.04-.21-.12-.15-.09-.16-.09-.2-.11-.239-.13-.12-.07-.03-.02-.32-.18-.28-.16-.08-.04-.359-.2L63.416 14.8 59.6 12.64 58.46 12l-4.936-2.78-.524-.3-4.506-2.55a2.546 2.546 0 01-1.059-1.05 2.233 2.233 0 01-.15-.31l-.21-.99a2.645 2.645 0 011.329-2.3l.03-.03c.02 0 .04-.02.06-.02L53-.87l.529-.3 21.316-12.05 1.379-.78 5.306-2.99.359-.21.08-.04.28-.16.32-.18.03-.02.12-.07.239-.13.2-.11.16-.09.15-.08.21-.12.07-.04.469-.27.13-.07.62-.35.869-.5 6.414-3.62c.2-.11.39-.22.58-.32a6.069 6.069 0 015.385 0c.2.1.389.21.579.32l10.731 6.06 6.674 3.77L137.52-1.17l.4.23 4.636 2.61c.03 0 .05.02.07.02l.02.03a2.633 2.633 0 011.338 2.3z" fill="#123b6d"/>
    <path fill="#28a8ea" d="M82-40v26l28 26h28v-26l-28-26z"/>
    <path d="M110 12v26H82l-.5-.42-.07-.06v-.01l-.09-.08-.18-.15-.34-.29-.03-.02-.44-.38-.01-.01-.11-.09-.05-.04-.05-.05-.59-.5h-.01l-.12-.11-.08-.07-.05-.04-.12-.1-.3-.25-.6-.49L54 14.99l-1-.82V-14h29l.6.56.15.14.44.41.31.28.28.26.47.44.13.12.62.58z" fill="#0364b8"/>
    <path fill="#14447d" d="M54 12h28v26H54z"/>
    <path fill="#0078d4" d="M110 12h28v26h-28z"/>
    <path fill="#50d9ff" d="M110-40h28v26h-28z"/>
    <path fill="#0078d4" d="M53-40h29v26H53zM82-14h28v26H82z"/>
    <path d="M58.38-55h74.24a5.38 5.38 0 015.38 5.38V-40H53v-9.62A5.38 5.38 0 0158.38-55z" fill="#0358a7"/>
    <path d="M138 4.829L96.942 27.108l-.192.111a1.94 1.94 0 01-.2.107 2.46 2.46 0 01-.227.093l-1.34-.751-.167-.089a2.727 2.727 0 01-.237-.13l-.1-.062-8.132-4.52-.664-.375-.545-.3-1.2-.675L53 3.318v32.259h85z" opacity=".1" fill="#0a2767"/>
    <path d="M138 5.829L96.942 28.108l-.192.111a1.94 1.94 0 01-.2.107 2.46 2.46 0 01-.227.093l-1.34-.751-.167-.089a2.727 2.727 0 01-.237-.13l-.1-.062-8.132-4.52-.664-.375-.545-.3-1.2-.675L53 4.318v32.259h85z" opacity=".1" fill="#0a2767"/>
    <path d="M138 6.829L96.942 29.108l-.192.111a1.94 1.94 0 01-.2.107 2.46 2.46 0 01-.227.093l-1.34-.751-.167-.089a2.727 2.727 0 01-.237-.13l-.1-.062-8.132-4.52-.664-.375-.545-.3-1.2-.675L53 5.318v32.259h85z" opacity=".1" fill="#0a2767"/>
    <path d="M138 7.829L96.942 30.108l-.192.111a1.94 1.94 0 01-.2.107 2.46 2.46 0 01-.227.093l-1.34-.751-.167-.089a2.727 2.727 0 01-.237-.13l-.1-.062-8.132-4.52-.664-.375-.545-.3-1.2-.675L53 6.318v32.259h85z" opacity=".1" fill="#0a2767"/>
    <path d="M142.641 6.242l-.054.029-.013.008-43.8 23.765a6.019 6.019 0 01-.587.319 6.331 6.331 0 01-5.389 0 6.138 6.138 0 01-.587-.319l2.061 14.818 43.658 13.047a6.235 6.235 0 003.564-1.1 5.686 5.686 0 002.5-4.671V4.022a2.542 2.542 0 01-1.353 2.22z" fill="#1490df"/>
    <path d="M100.479 29.163l-1.629.883a6.261 6.261 0 01-.587.319 6.329 6.329 0 01-5.388 0 6.261 6.261 0 01-.587-.319l2.061 14.818 43.658 13.047a6.241 6.241 0 003.565-1.1 5.773 5.773 0 002.339-3.356z" opacity=".05"/>
    <path d="M143.578 54.412L99.439 29.727l-.589.319a6.261 6.261 0 01-.587.319 6.329 6.329 0 01-5.388 0 6.261 6.261 0 01-.587-.319l2.061 14.818 43.658 13.047a6.241 6.241 0 003.565-1.1 5.851 5.851 0 002.006-2.399z" opacity=".05"/>
    <path d="M143.088 55.284L98.406 30.3l-.143.07a6.329 6.329 0 01-5.388 0 6.261 6.261 0 01-.587-.319l2.061 14.818 43.658 13.047a6.241 6.241 0 003.565-1.1 5.943 5.943 0 001.516-1.532z" opacity=".05"/>
    <path d="M142.444 56.069L97.578 30.977l-.223-.119-.176-.1a6.334 6.334 0 01-4.305-.394 6.261 6.261 0 01-.587-.319l2.061 14.818 43.658 13.047a6.241 6.241 0 003.565-1.1 6.015 6.015 0 00.873-.741z" opacity=".05"/>
    <path d="M141.63 56.76c-.13.09-.26.18-.39.26-.13.08-.27.15-.41.22-.16.08-.32.15-.48.22-.01 0-.02.01-.03.01q-.27.1-.54.18a3.3 3.3 0 01-.62.15.7.7 0 01-.14.03c-.11.02-.22.03-.34.04a4.632 4.632 0 01-.65.04H53.15a6.01 6.01 0 01-6.08-5.94V4.02l1.38.77.02.01c.01.01.01.01.02.01L53 7.32 61.42 12 82 23.44l.6.34.15.08.44.25.31.17.28.15.47.27.13.07.62.34 7.44 4.14c.19.12.39.23.59.33l2.48 1.39 1.57.88h.01l6.67 3.73 1.79 1 1.79 1 .75.42 1.04.58z" fill="#28a8ea"/>
    <path d="M85-26v59.62a5.337 5.337 0 01-.37 1.96 5.272 5.272 0 01-.52 1 4.839 4.839 0 01-.86 1 5.173 5.173 0 01-.51.42 5.462 5.462 0 01-1.03.58 5.378 5.378 0 01-2.09.42H47v-4h.07V4.02a2.644 2.644 0 011.33-2.3l.03-.03c.02 0 .04-.02.06-.02L53-.87V-32h26.62a4.547 4.547 0 012.38.69A6.374 6.374 0 0185-26z" opacity=".05"/>
    <path d="M84.25-25.9v58.52a5.432 5.432 0 01-.86 2.96 4.746 4.746 0 01-.84 1 3.379 3.379 0 01-.55.45 3.747 3.747 0 01-.66.4c-.1.06-.2.1-.3.15a5.292 5.292 0 01-2.08.42H47v-3h.07V4.02a2.644 2.644 0 011.33-2.3l.03-.03c.02 0 .04-.02.06-.02L53-.87v-30.88h25.87A4.942 4.942 0 0182-30.58a6.149 6.149 0 012.25 4.68z" opacity=".075"/>
    <path d="M83.5-25.81v57.43a5.45 5.45 0 01-1.5 3.82 1.92 1.92 0 01-.15.14 4.911 4.911 0 01-1.47 1c-.01 0-.02.01-.03.01a5.268 5.268 0 01-2.04.41H47v-2h.07V4.02a2.644 2.644 0 011.33-2.3l.03-.03c.02 0 .04-.02.06-.02L53-.87V-31.5h25.12A5.21 5.21 0 0182-29.68a5.846 5.846 0 011.5 3.87z" opacity=".1"/>
    <path d="M82.75-25.72v56.34a5.735 5.735 0 01-.75 2.87 4.989 4.989 0 01-2.29 2.09c-.12.05-.25.1-.38.14a5.088 5.088 0 01-1.67.28H47v-1h.07V4.02a2.644 2.644 0 011.33-2.3l.03-.03c.02 0 .04-.02.06-.02L53-.87v-30.38h24.37A5.373 5.373 0 0182-28.49a5.5 5.5 0 01.75 2.77z" opacity=".125"/>
    <path d="M82-25.62v55.24a5.158 5.158 0 01-3.74 5.22A4.731 4.731 0 0177 35H47.07V4.02a2.644 2.644 0 011.33-2.3l.03-.03c.02 0 .04-.02.06-.02L53-.87V-31h23.62A5.382 5.382 0 0182-25.62z" opacity=".2"/>
    <rect rx="5.38" height="65" width="65" y="-31" x="17" fill="url(#a)"/>
    <path d="M35.041-7.357a14.637 14.637 0 015.744-6.343 17.366 17.366 0 019.128-2.287 16.154 16.154 0 018.444 2.169 14.489 14.489 0 015.59 6.062 19.581 19.581 0 011.958 8.916 20.653 20.653 0 01-2.017 9.329 14.837 14.837 0 01-5.755 6.274 16.788 16.788 0 01-8.763 2.228 16.542 16.542 0 01-8.632-2.193 14.705 14.705 0 01-5.661-6.074A19.091 19.091 0 0133.1 1.913a21.187 21.187 0 011.941-9.27zm6.121 14.895a9.5 9.5 0 003.231 4.175 8.44 8.44 0 005.048 1.521 8.862 8.862 0 005.39-1.568 9.107 9.107 0 003.137-4.187 16.181 16.181 0 001-5.826 17.723 17.723 0 00-.943-5.9A9.345 9.345 0 0055-8.583a8.35 8.35 0 00-5.343-1.651A8.718 8.718 0 0044.488-8.7a9.576 9.576 0 00-3.3 4.21 16.71 16.71 0 00-.024 12.029z" fill="#fff"/>
  </g>
  <path fill="none" d="M0-89h180V91H0z"/>
</svg>